<?xml version="1.0" encoding="utf-8"?>
<!-- Generator: Adobe Illustrator 16.0.3, SVG Export Plug-In . SVG Version: 6.00 Build 0)  -->
<!DOCTYPE svg PUBLIC "-//W3C//DTD SVG 1.1//EN" "http://www.w3.org/Graphics/SVG/1.1/DTD/svg11.dtd">
<svg version="1.1" id="レイヤー_1" xmlns="http://www.w3.org/2000/svg" xmlns:xlink="http://www.w3.org/1999/xlink" x="0px"
	 y="0px" width="2075.405px" height="314.583px" viewBox="0 0 2075.405 314.583" enable-background="new 0 0 2075.405 314.583"
	 xml:space="preserve">
<g>
	<path fill="#C9B6FF" d="M449.112,277.671c-2.586,0-4.725-0.844-6.411-2.534c-1.691-1.688-2.535-3.825-2.535-6.411V53.732
		c0-2.582,0.843-4.72,2.535-6.411c1.687-1.687,3.825-2.535,6.411-2.535h143.428c2.385,0,4.473,0.848,6.262,2.535
		c1.79,1.691,2.684,3.83,2.684,6.411c0,2.385-0.895,4.473-2.684,6.262c-1.789,1.789-3.876,2.684-6.262,2.684H458.058v89.457h98.7
		c2.582,0,4.72,0.848,6.411,2.535c1.687,1.691,2.535,3.83,2.535,6.411c0,2.585-0.848,4.771-2.535,6.56
		c-1.691,1.789-3.83,2.684-6.411,2.684h-98.7v89.456h134.483c2.385,0,4.473,0.895,6.262,2.684c1.79,1.79,2.684,3.877,2.684,6.263
		c0,2.586-0.895,4.724-2.684,6.411c-1.789,1.69-3.876,2.534-6.262,2.534H449.112z"/>
	<path fill="#C9B6FF" d="M650.684,277.671c-2.586,0-4.725-0.844-6.411-2.534c-1.691-1.688-2.535-3.825-2.535-6.411V123.508
		c0-2.782,0.843-4.967,2.535-6.56c1.687-1.589,3.825-2.386,6.411-2.386c2.781,0,4.966,0.797,6.56,2.386
		c1.589,1.593,2.385,3.778,2.385,6.56v145.218c0,2.586-0.796,4.724-2.385,6.411C655.65,276.827,653.465,277.671,650.684,277.671z
		 M758.926,277.671c-2.586,0-4.725-0.844-6.411-2.534c-1.691-1.688-2.535-3.825-2.535-6.411v-86.177
		c0-15.306-4.025-27.829-12.077-37.572c-8.051-9.737-18.539-14.611-31.458-14.611c-13.717,0-24.95,4.375-33.695,13.12
		c-8.75,8.75-13.121,20.081-13.121,33.993H644.72c0.596-12.72,3.625-23.953,9.095-33.695c5.465-9.738,12.771-17.393,21.917-22.96
		c9.141-5.563,19.382-8.35,30.713-8.35c12.123,0,22.76,2.982,31.906,8.946c9.142,5.964,16.349,14.215,21.619,24.75
		c5.265,10.539,7.902,22.662,7.902,36.379v86.177c0,2.586-0.796,4.724-2.385,6.411C763.893,276.827,761.708,277.671,758.926,277.671
		z M866.274,277.671c-2.586,0-4.725-0.844-6.411-2.534c-1.691-1.688-2.535-3.825-2.535-6.411v-86.177
		c0-15.306-4.025-27.829-12.077-37.572c-8.051-9.737-18.539-14.611-31.458-14.611c-13.717,0-24.899,4.524-33.546,13.567
		c-8.647,9.048-12.775,21.223-12.375,36.528H749.98c0.396-13.717,3.378-25.645,8.946-35.783
		c5.563-10.139,13.12-18.041,22.662-23.706s20.277-8.499,32.205-8.499c12.123,0,22.76,2.982,31.906,8.946
		c9.142,5.964,16.349,14.215,21.619,24.75c5.265,10.539,7.902,22.662,7.902,36.379v86.177c0,2.586-0.796,4.724-2.385,6.411
		C871.241,276.827,869.055,277.671,866.274,277.671z"/>
	<path fill="#C9B6FF" d="M1000.455,279.46c-15.906,0-30.168-3.625-42.79-10.884c-12.626-7.254-22.564-17.192-29.819-29.818
		c-7.259-12.622-10.884-26.786-10.884-42.492c0-15.901,3.625-30.164,10.884-42.79c7.254-12.622,17.193-22.56,29.819-29.819
		c12.622-7.254,26.884-10.884,42.79-10.884c15.902,0,30.117,3.629,42.641,10.884c12.524,7.259,22.411,17.197,29.669,29.819
		c7.254,12.626,10.884,26.889,10.884,42.79c0,15.706-3.629,29.87-10.884,42.492c-7.259,12.626-17.146,22.564-29.669,29.818
		C1030.572,275.835,1016.356,279.46,1000.455,279.46z M1000.455,262.762c12.524,0,23.706-2.931,33.546-8.797
		c9.84-5.861,17.593-13.814,23.258-23.854c5.666-10.036,8.499-21.419,8.499-34.143c0-12.524-2.833-23.804-8.499-33.845
		c-5.666-10.036-13.418-17.989-23.258-23.855c-9.84-5.861-21.022-8.796-33.546-8.796c-12.328,0-23.459,2.935-33.397,8.796
		c-9.943,5.866-17.793,13.819-23.557,23.855c-5.768,10.041-8.647,21.423-8.647,34.143c0,12.523,2.879,23.809,8.647,33.845
		c5.763,10.04,13.614,17.993,23.557,23.854C976.996,259.831,988.126,262.762,1000.455,262.762z"/>
	<path fill="#C9B6FF" d="M1236.019,280.652c-15.907,0-30.863-3.131-44.877-9.393s-26.39-14.909-37.125-25.942
		s-19.187-23.752-25.346-38.168c-6.164-14.411-9.244-29.768-9.244-46.07c0-16.103,2.982-31.356,8.946-45.772
		c5.964-14.411,14.262-27.135,24.899-38.168c10.632-11.033,23.007-19.681,37.124-25.942c14.113-6.262,29.32-9.393,45.623-9.393
		c13.716,0,26.734,2.19,39.063,6.56c12.324,4.375,23.855,11.033,34.59,19.979c1.789,1.393,2.684,3.332,2.684,5.815
		c0,2.488-0.797,4.673-2.385,6.56c-1.594,1.892-3.779,2.833-6.561,2.833c-0.796,0-1.593-0.149-2.385-0.447
		c-0.797-0.298-1.593-0.694-2.386-1.193c-0.796-0.494-1.691-1.142-2.684-1.938c-7.953-7.156-16.997-12.323-27.135-15.506
		c-10.138-3.177-21.073-4.771-32.8-4.771c-13.321,0-25.942,2.735-37.87,8.2c-11.927,5.47-22.466,12.925-31.608,22.364
		c-9.146,9.444-16.302,20.23-21.469,32.354c-5.172,12.128-7.753,24.95-7.753,38.466c0,13.917,2.581,27.037,7.753,39.361
		c5.167,12.328,12.272,23.16,21.32,32.502c9.043,9.347,19.531,16.652,31.459,21.917c11.927,5.27,24.647,7.902,38.168,7.902
		c11.727,0,22.708-1.789,32.95-5.367c10.236-3.579,19.83-9.044,28.775-16.4c1.589-1.389,3.476-1.888,5.666-1.491
		c2.186,0.4,4.072,1.393,5.666,2.981c1.589,1.594,2.386,3.681,2.386,6.263c0,1.192-0.103,2.287-0.298,3.279
		c-0.2,0.997-0.796,1.99-1.789,2.982c-9.742,9.742-21.022,16.451-33.844,20.128C1262.707,278.813,1249.535,280.652,1236.019,280.652
		z M1311.46,248.747l-17.891-3.877v-64.408h-50.096c-2.586,0-4.725-0.792-6.411-2.386c-1.691-1.589-2.535-3.578-2.535-5.964
		c0-2.186,0.843-4.025,2.535-5.517c1.687-1.491,3.825-2.236,6.411-2.236h59.041c2.782,0,4.967,0.797,6.56,2.386
		c1.589,1.594,2.386,3.681,2.386,6.262V248.747z"/>
	<path fill="#C9B6FF" d="M1429.542,279.758c-14.313,0-27.135-2.931-38.466-8.796c-11.332-5.861-20.328-14.462-26.986-25.794
		c-6.663-11.331-9.989-25.146-9.989-41.447v-80.213c0-2.581,0.843-4.72,2.535-6.411c1.687-1.687,3.825-2.535,6.411-2.535
		c2.581,0,4.72,0.848,6.411,2.535c1.687,1.691,2.534,3.83,2.534,6.411v80.213c0,12.924,2.535,23.705,7.604,32.353
		s11.928,15.11,20.575,19.383c8.647,4.277,18.436,6.411,29.371,6.411c10.735,0,20.375-2.088,28.924-6.262
		c8.545-4.175,15.306-9.789,20.277-16.848c4.966-7.055,7.454-15.059,7.454-24.005h14.909c-0.796,12.328-4.473,23.408-11.032,33.248
		c-6.561,9.841-15.059,17.594-25.495,23.259C1454.143,276.926,1442.462,279.758,1429.542,279.758z M1495.143,277.671
		c-2.585,0-4.724-0.844-6.41-2.534c-1.691-1.688-2.535-3.825-2.535-6.411V123.508c0-2.782,0.844-4.967,2.535-6.56
		c1.687-1.589,3.825-2.386,6.41-2.386c2.782,0,4.967,0.797,6.561,2.386c1.589,1.593,2.386,3.778,2.386,6.56v145.218
		c0,2.586-0.797,4.724-2.386,6.411C1500.11,276.827,1497.925,277.671,1495.143,277.671z"/>
	<path fill="#C9B6FF" d="M1632.306,279.46c-15.906,0-30.168-3.625-42.79-10.884c-12.626-7.254-22.564-17.192-29.818-29.818
		c-7.259-12.622-10.884-26.786-10.884-42.492c0-15.901,3.625-30.164,10.884-42.79c7.254-12.622,17.192-22.56,29.818-29.819
		c12.622-7.254,26.884-10.884,42.79-10.884c15.902,0,30.117,3.629,42.641,10.884c12.524,7.259,22.411,17.197,29.67,29.819
		c7.255,12.626,10.884,26.889,10.884,42.79l-7.454,11.928c0,13.521-3.332,25.644-9.989,36.379
		c-6.663,10.734-15.655,19.232-26.986,25.495C1659.74,276.329,1646.815,279.46,1632.306,279.46z M1632.306,262.762
		c12.524,0,23.706-2.931,33.546-8.797c9.841-5.861,17.594-13.814,23.259-23.854c5.666-10.036,8.499-21.321,8.499-33.845
		c0-12.72-2.833-24.102-8.499-34.143c-5.665-10.036-13.418-17.989-23.259-23.855c-9.84-5.861-21.021-8.796-33.546-8.796
		c-12.328,0-23.459,2.935-33.396,8.796c-9.943,5.866-17.794,13.819-23.558,23.855c-5.768,10.041-8.647,21.423-8.647,34.143
		c0,12.523,2.88,23.809,8.647,33.845c5.764,10.04,13.614,17.993,23.558,23.854C1608.847,259.831,1619.978,262.762,1632.306,262.762z
		 M1706.853,277.671c-2.786,0-5.022-0.844-6.709-2.534c-1.691-1.688-2.534-3.825-2.534-6.411v-54.568l5.665-17.892h12.226v72.46
		c0,2.586-0.797,4.724-2.386,6.411C1711.522,276.827,1709.434,277.671,1706.853,277.671z"/>
	<path fill="#C9B6FF" d="M1769.169,277.671c-2.586,0-4.724-0.844-6.411-2.534c-1.69-1.688-2.534-3.825-2.534-6.411V123.508
		c0-2.782,0.844-4.967,2.534-6.56c1.688-1.589,3.825-2.386,6.411-2.386c2.782,0,4.967,0.797,6.561,2.386
		c1.589,1.593,2.386,3.778,2.386,6.56v145.218c0,2.586-0.797,4.724-2.386,6.411C1774.136,276.827,1771.952,277.671,1769.169,277.671
		z M1766.188,178.076c1.192-12.72,4.668-24.004,10.437-33.844c5.764-9.84,13.218-17.542,22.364-23.11
		c9.141-5.563,19.279-8.349,30.415-8.349c7.553,0,13.418,0.895,17.593,2.684s5.764,4.972,4.771,9.542
		c-0.597,2.982-1.989,4.771-4.175,5.368c-2.189,0.596-4.822,0.647-7.902,0.149c-3.084-0.494-6.514-0.746-10.287-0.746
		c-9.942,0-18.786,2.087-26.539,6.262c-7.753,4.174-13.819,9.891-18.189,17.146c-4.375,7.259-6.56,15.557-6.56,24.899H1766.188z"/>
	<path fill="#C9B6FF" d="M1965.374,279.46c-15.906,0-30.168-3.625-42.79-10.884c-12.626-7.254-22.564-17.192-29.818-29.818
		c-7.259-12.622-10.884-26.884-10.884-42.79c0-15.902,3.625-30.117,10.884-42.641c7.254-12.524,17.192-22.411,29.818-29.67
		c12.622-7.254,26.884-10.884,42.79-10.884c14.313,0,27.182,3.084,38.615,9.244c11.429,6.164,20.323,14.416,26.688,24.75V53.732
		c0-2.782,0.843-4.967,2.534-6.561c1.687-1.588,3.825-2.385,6.411-2.385c2.781,0,4.967,0.797,6.56,2.385
		c1.589,1.594,2.386,3.779,2.386,6.561v144.025c-0.2,15.506-3.979,29.423-11.331,41.746c-7.356,12.328-17.248,22.065-29.67,29.223
		C1995.141,275.882,1981.075,279.46,1965.374,279.46z M1965.374,262.762c12.524,0,23.706-2.931,33.546-8.797
		c9.841-5.861,17.594-13.814,23.259-23.854c5.666-10.036,8.499-21.419,8.499-34.143c0-12.72-2.833-24.051-8.499-33.994
		c-5.665-9.938-13.418-17.84-23.259-23.706c-9.84-5.861-21.021-8.796-33.546-8.796c-12.328,0-23.459,2.935-33.396,8.796
		c-9.943,5.866-17.794,13.768-23.558,23.706c-5.768,9.943-8.647,21.274-8.647,33.994c0,12.724,2.88,24.106,8.647,34.143
		c5.764,10.04,13.614,17.993,23.558,23.854C1941.915,259.831,1953.045,262.762,1965.374,262.762z"/>
</g>
<g>
	<g>
		<defs>
			<rect id="SVGID_1_" x="18.34" width="323" height="323"/>
		</defs>
		<clipPath id="SVGID_2_">
			<use xlink:href="#SVGID_1_"  overflow="visible"/>
		</clipPath>
		<g clip-path="url(#SVGID_2_)">
			<defs>
				<rect id="SVGID_3_" x="18.34" width="323" height="323"/>
			</defs>
			<clipPath id="SVGID_4_">
				<use xlink:href="#SVGID_3_"  overflow="visible"/>
			</clipPath>
			<path clip-path="url(#SVGID_4_)" fill="#8B86EA" d="M308.277,274.036l-2.403,2.406l-24.913,24.913l-50.535-50.535
				c-15.844,3.559-32.808,5.481-50.443,5.481c-17.822,0-34.956-1.968-50.942-5.595c-12.728,16.364-60.468,41.416-102.231,35.965
				c0.959-0.025,1.912-0.11,2.854-0.246c0.066-0.01,0.133-0.021,0.199-0.031c0.262-0.045,0.521-0.098,0.779-0.151
				c0.006-0.004,0.016-0.004,0.022-0.006c0.006,0,0.016-0.004,0.022-0.004c0.861-0.192,1.716-0.441,2.556-0.747
				c16.077-5.864,28.202-32.656,28.202-64.875c-24.708-18.629-39.707-43.122-39.707-69.962c0-26.604,14.731-50.904,39.047-69.471
				L23.646,44.041l27.319-27.316l6.012,6.012l0.006,0.006l38.562,38.561l0.022,0.022L308.277,274.036z"/>
			<path clip-path="url(#SVGID_4_)" fill="#8B86EA" d="M338.233,150.665c0,24.793-12.797,47.592-34.221,65.612L136.762,49.03
				c13.737-2.596,28.234-3.997,43.22-3.997C267.385,45.034,338.233,92.326,338.233,150.665"/>
		</g>
	</g>
</g>
<g>
</g>
<g>
</g>
<g>
</g>
<g>
</g>
<g>
</g>
<g>
</g>
<g>
</g>
<g>
</g>
<g>
</g>
<g>
</g>
<g>
</g>
<g>
</g>
<g>
</g>
<g>
</g>
<g>
</g>
</svg>
