<?xml version="1.0" encoding="utf-8"?>
<!-- Generator: Adobe Illustrator 16.0.3, SVG Export Plug-In . SVG Version: 6.00 Build 0)  -->
<!DOCTYPE svg PUBLIC "-//W3C//DTD SVG 1.1//EN" "http://www.w3.org/Graphics/SVG/1.1/DTD/svg11.dtd">
<svg version="1.1" id="レイヤー_1" xmlns="http://www.w3.org/2000/svg" xmlns:xlink="http://www.w3.org/1999/xlink" x="0px"
	 y="0px" width="1024px" height="1024px" viewBox="0 0 1024 1024" enable-background="new 0 0 1024 1024" xml:space="preserve">
<g>
	<path fill="#8B86EA" d="M919.18,868.77l-7.62,7.631l-78.98,78.979L672.37,795.17c-50.229,11.279-104.01,17.38-159.92,17.38
		c-56.5,0-110.82-6.24-161.5-17.74c-40.35,51.88-191.7,131.3-324.1,114.02c3.04-0.079,6.06-0.35,9.05-0.779
		c0.21-0.03,0.42-0.069,0.63-0.101c0.83-0.141,1.65-0.311,2.47-0.479c0.021-0.01,0.051-0.01,0.07-0.021c0.02,0,0.05-0.01,0.07-0.01
		c2.729-0.61,5.439-1.4,8.1-2.37c50.97-18.59,89.41-103.53,89.41-205.67C58.32,640.34,10.77,562.69,10.77,477.6
		c0-84.34,46.7-161.38,123.79-220.24L16.82,139.62l86.61-86.601l19.06,19.061l0.021,0.02l122.25,122.25l0.069,0.07L919.18,868.77z"
		/>
	<path fill="#8B86EA" d="M1014.15,477.65c0,78.601-40.57,150.88-108.49,208.01L375.43,155.44c43.55-8.229,89.51-12.67,137.02-12.67
		C789.541,142.77,1014.15,292.7,1014.15,477.65z"/>
</g>
<path fill="none" stroke="#000000" stroke-miterlimit="10" d="M25.81,908.86"/>
</svg>
